<svg xmlns="http://www.w3.org/2000/svg" width="22.778" height="22.47" viewBox="0 0 22.778 22.47"><path d="M22.857,9.618,12.044.823a.677.677,0,0,0-.754,0L.477,9.618a.538.538,0,0,0-.078.758L2.444,12.89a.537.537,0,0,0,.418.2c.01,0,.019,0,.029-.005s.03.005.045.005a.536.536,0,0,0,.339-.121l.275-.223V22.33a.848.848,0,0,0,.847.847h14.54a.848.848,0,0,0,.847-.847V12.745l.275.223a.548.548,0,0,0,.395.118c.008,0,.016,0,.024-.005s.033.006.05.005a.539.539,0,0,0,.363-.2l2.045-2.514a.539.539,0,0,0-.079-.758ZM19.785,11.3v-.053h-.065L12.044,5a.677.677,0,0,0-.754,0L3.615,11.243H3.549V11.3l-.565.46L1.648,10.113,11.667,1.965l10.019,8.149L20.35,11.756ZM13.441,22.1H9.894V16.032a1.848,1.848,0,0,1,1.66-1.864,1.757,1.757,0,0,1,1.367.512,1.788,1.788,0,0,1,.521,1.26V22.1Zm5.267,0h-4.19v-6.16a2.863,2.863,0,0,0-.834-2.019,2.833,2.833,0,0,0-2.2-.827,2.9,2.9,0,0,0-2.67,2.94V22.1H4.627V11.869l7.04-5.726,7.04,5.726V22.1Z" transform="translate(-0.278 -0.707)" fill="#fff"/></svg>