<svg xmlns="http://www.w3.org/2000/svg" width="24.992" height="26.671" viewBox="0 0 24.992 26.671"><g transform="translate(0 0)"><path d="M22.2,354.2H19.06a1.573,1.573,0,0,0-1.569,1.569v7.583a.524.524,0,0,0,.523.523h5.229a.524.524,0,0,0,.523-.523v-7.583A1.573,1.573,0,0,0,22.2,354.2Zm.523,8.629H18.537v-7.06a.524.524,0,0,1,.523-.523H22.2a.524.524,0,0,1,.523.523v7.06Z" transform="translate(-17.491 -337.203)" fill="#fff"/><path d="M207.472,267.012h-3.138a1.573,1.573,0,0,0-1.569,1.569v11.766a.524.524,0,0,0,.523.523h5.229a.524.524,0,0,0,.523-.523V268.581A1.573,1.573,0,0,0,207.472,267.012Zm.523,12.812h-4.184V268.581a.524.524,0,0,1,.523-.523h3.138a.524.524,0,0,1,.523.523v11.243Z" transform="translate(-193.875 -254.2)" fill="#fff"/><path d="M392.745,223.418h-3.138a1.573,1.573,0,0,0-1.569,1.569v13.858a.524.524,0,0,0,.523.523h5.229a.524.524,0,0,0,.523-.523V224.987A1.573,1.573,0,0,0,392.745,223.418Zm.523,14.9h-4.184V224.987a.524.524,0,0,1,.523-.523h3.138a.524.524,0,0,1,.523.523v13.335Z" transform="translate(-370.258 -212.697)" fill="#fff"/><path d="M63.208,2.96a.522.522,0,0,0-.424-.356l-2.2-.319L59.6.293a.525.525,0,0,0-.941,0L57.68,2.285l-2.2.319a.522.522,0,0,0-.424.356.528.528,0,0,0,.131.539l1.5,1.464L51.9,7.076a2.059,2.059,0,0,0-1.632-.8,2.091,2.091,0,0,0-2.092,2.092,2.417,2.417,0,0,0,.026.34l-5.188,2.285a2.088,2.088,0,1,0,.455,1.3,2.417,2.417,0,0,0-.026-.34l5.188-2.285a2.089,2.089,0,0,0,3.729-1.3,2.417,2.417,0,0,0-.026-.34L56.6,6.145l-.188,1.088a.525.525,0,0,0,.758.554l1.966-1.035L61.1,7.787a.539.539,0,0,0,.554-.042.524.524,0,0,0,.209-.512l-.377-2.191,1.59-1.548a.517.517,0,0,0,.131-.533ZM41.38,13.335a1.046,1.046,0,1,1,1.046-1.046A1.049,1.049,0,0,1,41.38,13.335Zm8.89-3.922a1.046,1.046,0,1,1,1.046-1.046A1.049,1.049,0,0,1,50.27,9.413ZM60.556,4.487a.528.528,0,0,0-.152.465l.241,1.417L59.375,5.7a.514.514,0,0,0-.246-.058.583.583,0,0,0-.246.058l-1.271.669.173-1,.073-.418a.519.519,0,0,0-.152-.465l-1.03-1,1.422-.2a.511.511,0,0,0,.392-.288L59.129,1.7l.638,1.286a.529.529,0,0,0,.392.288l1.422.2Z" transform="translate(-38.242 0)" fill="#fff"/></g></svg>