<svg xmlns="http://www.w3.org/2000/svg" width="25.653" height="28.005" viewBox="0 0 25.653 28.005"><g transform="translate(-21.504 0)"><g transform="translate(21.504 5.971)"><g transform="translate(0)"><path d="M26.153,110.736a1.565,1.565,0,0,0-2.579-1.192,1.565,1.565,0,0,0-1.033,2.954,1.565,1.565,0,0,0,3.065-.574A1.568,1.568,0,0,0,26.153,110.736Zm-1.2.649-.288.162.1.316a.744.744,0,1,1-1.453.274l-.024-.328-.326-.048a.744.744,0,1,1,.5-1.372l.316.193.224-.295a.744.744,0,1,1,.957,1.1Z" transform="translate(-21.504 -109.171)" fill="#fff"/></g></g><g transform="translate(25.984 0.848)"><path d="M107.951,16.939a1.441,1.441,0,0,0-2.354-1.113,1.44,1.44,0,0,0-1.874,1.518,1.44,1.44,0,0,0,1.829,2.156,1.44,1.44,0,0,0,1.919-1.358q0-.062-.005-.123A1.442,1.442,0,0,0,107.951,16.939Zm-1.137.541-.288.162.1.316a.62.62,0,0,1-.9.718l-.251-.147-.222.188a.611.611,0,0,1-.4.147.619.619,0,0,1-.411-1.083l.192-.17-.069-.247a.62.62,0,0,1,.919-.7l.316.193.224-.295a.62.62,0,1,1,.8.915Z" transform="translate(-103.406 -15.499)" fill="#fff"/></g><g transform="translate(42.612 3.884)"><path d="M411.947,72.444a2.124,2.124,0,0,0-4.229.4,1.916,1.916,0,0,0,3.748.8c0-.041,0-.082-.005-.123A1.442,1.442,0,0,0,411.947,72.444Zm-1.137.541-.288.162.1.316a.62.62,0,0,1-.9.718l-.251-.147-.222.188a.611.611,0,0,1-.4.147.619.619,0,0,1-.411-1.083l.192-.17-.069-.247a.62.62,0,0,1,.919-.7l.316.193.224-.3a.62.62,0,1,1,.8.915Z" transform="translate(-407.402 -71.004)" fill="#fff"/></g><g transform="translate(38.516 0)"><g transform="translate(0 0)"><path d="M336.806,1.781a1.551,1.551,0,0,0-.878-.629,1.565,1.565,0,0,0-3.024.806,1.571,1.571,0,0,0-.1,1.894,1.554,1.554,0,0,0,1,.658,1.581,1.581,0,0,0,.3.028,1.569,1.569,0,0,0,1-.367,1.567,1.567,0,0,0,1.29-.215h0A1.566,1.566,0,0,0,336.806,1.781ZM336.243,2.8a.74.74,0,0,1-.313.476h0a.746.746,0,0,1-.751.05l-.3-.147-.207.258a.748.748,0,0,1-.163.15.744.744,0,0,1-.88-1.2l.258-.2-.143-.3A.748.748,0,0,1,334,.949a.739.739,0,0,1,.417-.129.753.753,0,0,1,.141.013.745.745,0,0,1,.6.693l.018.37.37.02a.744.744,0,0,1,.693.883Z" transform="translate(-332.532 0)" fill="#fff"/></g></g><g transform="translate(25.343 3.555)"><path d="M109.238,72.976a1.445,1.445,0,0,0-.147-.634,1.442,1.442,0,0,0-1.008-2.048,1.44,1.44,0,0,0-1.943-1.866,1.89,1.89,0,0,0-1.678-.486,1.436,1.436,0,0,0-.38-.271,1.565,1.565,0,0,0-2.126-2.292,1.568,1.568,0,0,0-1.357.168A1.564,1.564,0,0,0,97.992,67a1.444,1.444,0,0,0-1.166,1.24,1.7,1.7,0,0,0-1.474.268,1.44,1.44,0,0,0-1.879,1.516,1.444,1.444,0,0,0-.155,1.565,1.564,1.564,0,0,0-1.074,2.606,2.475,2.475,0,0,0-.545,1.758l2.232,13.5h12.839L109,75.984l0-.034a2.474,2.474,0,0,0-.294-1.383,1.58,1.58,0,0,0,.051-.391q0-.062-.005-.123A1.442,1.442,0,0,0,109.238,72.976ZM94.626,88.634h0L92.515,75.868A1.647,1.647,0,0,1,94.158,74.1h.017a1.642,1.642,0,0,1,1.646,1.584v.008l0,.05q0,.05,0,.1l1.016,12.789Zm3.039,0-1.02-12.918A1.647,1.647,0,0,1,98.292,74.1a1.649,1.649,0,0,1,1.647,1.647V88.634Zm3.094,0h0V75.75a1.647,1.647,0,0,1,2.834-1.142,1.631,1.631,0,0,1,.46,1.108l-1.02,12.918Zm7.424-12.766-2.111,12.766h-2.216l1.015-12.772v-.017q0-.05,0-.1l0-.041v-.017a1.642,1.642,0,0,1,1.646-1.584h.017a1.647,1.647,0,0,1,1.643,1.765Zm-.084-2.352-.252.142a2.473,2.473,0,0,0-1.307-.375h-.017a2.46,2.46,0,0,0-2.06,1.1,2.507,2.507,0,0,0-.28-.348,2.466,2.466,0,0,0-3.835.35,2.466,2.466,0,0,0-3.835-.35,2.5,2.5,0,0,0-.28.348,2.46,2.46,0,0,0-2.06-1.1h-.017a2.474,2.474,0,0,0-1.3.369.744.744,0,0,1,.935-1.139l.316.192.224-.294a.752.752,0,0,1,.178-.168l.7-.474-.806-.257a.619.619,0,0,1-.222-1.054l.192-.17-.069-.247a.62.62,0,0,1,.919-.7l.316.193.224-.3A.73.73,0,0,1,96.3,69a1.1,1.1,0,0,1,.788.314,1.258,1.258,0,0,0,.138.1l.319.193.22-.3.2-.264-.2-.249a.613.613,0,0,1-.132-.382.62.62,0,0,1,.613-.62l.231.013.132-.172a.739.739,0,0,1,.127-.129L99,67.3l-.143-.3a.744.744,0,0,1,1.286-.742.7.7,0,0,1,.04.069l.293.561.393-.5a.744.744,0,0,1,.971-.176l.316.192.224-.294a.744.744,0,1,1,.957,1.1l-.288.161.1.316a.76.76,0,0,1,.033.212c0,.011,0,.022,0,.033V68.3l.356.047a.618.618,0,0,1,.439.281l.179.281.312-.118a1.067,1.067,0,0,1,1.261.4l.266.4.352-.323a.62.62,0,1,1,.722,1l-.29.163.1.317a.563.563,0,0,1,.021.1l.071.609.536-.3a.62.62,0,0,1,.787.925l-.2.254.2.253a.611.611,0,0,1,.132.381A.622.622,0,0,1,108.1,73.516Z" transform="translate(-91.69 -65.005)" fill="#fff"/></g><g transform="translate(30.966 7.357)"><path d="M198.931,134.941a1.2,1.2,0,0,0-.354.053,4.5,4.5,0,0,0-4.077,2.244h.82a.709.709,0,0,1,.907-.683l.589.168-.068-.609a.719.719,0,0,1,0-.08.711.711,0,0,1,1.341-.328l.227.433.387-.3a.379.379,0,0,1,.233-.08.383.383,0,0,1,.383.383h.82A1.2,1.2,0,0,0,198.931,134.941Z" transform="translate(-194.501 -134.503)" fill="#fff"/></g><g transform="translate(35.233 9.299)"><path d="M275.4,170a1.427,1.427,0,0,0-1.046.46,1.395,1.395,0,0,0-1.853,1.317h.82a.575.575,0,0,1,.574-.574.568.568,0,0,1,.344.115l.4.3.215-.455a.6.6,0,0,1,1.145.256h.82A1.424,1.424,0,0,0,275.4,170Z" transform="translate(-272.501 -170.003)" fill="#fff"/></g><g transform="translate(26.99 14.224)"><g transform="translate(0 0)"><rect width="0.82" height="3.228" transform="translate(0 0.134) rotate(-9.393)" fill="#fff"/></g></g><g transform="translate(28.286 22.059)"><g transform="translate(0 0)"><rect width="0.82" height="2.015" transform="matrix(0.987, -0.163, 0.163, 0.987, 0, 0.134)" fill="#fff"/></g></g><g transform="translate(35.235 23.677)"><g transform="translate(0 0)"><rect width="1.068" height="0.82" transform="translate(0 1.064) rotate(-85.458)" fill="#fff"/></g></g><g transform="translate(35.576 17.332)"><g transform="translate(0 0)"><rect width="3.128" height="0.82" transform="translate(0 3.118) rotate(-85.458)" fill="#fff"/></g></g><g transform="translate(35.923 14.261)"><g transform="translate(0 0)"><rect width="1.819" height="0.82" transform="translate(0 1.814) rotate(-85.458)" fill="#fff"/></g></g></g></svg>