<svg xmlns="http://www.w3.org/2000/svg" width="22.588" height="26.556" viewBox="0 0 22.588 26.556"><g transform="translate(0)"><path d="M142.725,14.309h.176a5.074,5.074,0,0,0,3.877-1.677c2.117-2.387,1.765-6.478,1.727-6.869-.137-2.931-1.523-4.333-2.667-4.988A6.114,6.114,0,0,0,142.879,0h-.093a6.124,6.124,0,0,0-2.959.753c-1.155.654-2.563,2.057-2.7,5.01-.038.39-.39,4.482,1.727,6.869A5.054,5.054,0,0,0,142.725,14.309ZM138.595,5.9c0-.016.005-.033.005-.044.181-3.943,2.981-4.366,4.179-4.366h.066c1.485.033,4.009.638,4.179,4.366a.107.107,0,0,0,.005.044c.006.038.39,3.778-1.358,5.747a3.6,3.6,0,0,1-2.832,1.177h-.055a3.593,3.593,0,0,1-2.827-1.177C138.215,9.69,138.589,5.934,138.595,5.9Z" transform="translate(-131.527)" fill="#fff"/><path d="M58.66,266.083v-.017c0-.044-.005-.088-.005-.137-.033-1.089-.1-3.635-2.491-4.449l-.055-.016a15.868,15.868,0,0,1-4.564-2.079.742.742,0,1,0-.852,1.215,17.128,17.128,0,0,0,5.021,2.293c1.281.456,1.424,1.826,1.463,3.08a1.1,1.1,0,0,0,.006.137,9.982,9.982,0,0,1-.115,1.7,20.238,20.238,0,0,1-9.7,2.255,20.355,20.355,0,0,1-9.7-2.26,9.449,9.449,0,0,1-.115-1.7c0-.044.006-.088.006-.137.038-1.254.181-2.623,1.463-3.08a17.286,17.286,0,0,0,5.021-2.293.742.742,0,1,0-.852-1.215,15.694,15.694,0,0,1-4.564,2.079c-.022.006-.038.011-.055.017-2.387.819-2.458,3.366-2.491,4.449a1.1,1.1,0,0,1-.006.137v.017a8.433,8.433,0,0,0,.28,2.491.705.705,0,0,0,.286.346,20.8,20.8,0,0,0,10.734,2.629,20.863,20.863,0,0,0,10.734-2.629.736.736,0,0,0,.286-.346A8.848,8.848,0,0,0,58.66,266.083Z" transform="translate(-36.073 -244.988)" fill="#fff"/></g></svg>