<svg xmlns="http://www.w3.org/2000/svg" width="23.402" height="21.53" viewBox="0 0 23.402 21.53"><g transform="translate(0 1.332)"><path d="M20.185-1.332H3.217A3.221,3.221,0,0,0,0,1.885V12.269a3.221,3.221,0,0,0,3.206,3.217V20.2l6.772-4.712H20.185A3.221,3.221,0,0,0,23.4,12.269V1.885A3.221,3.221,0,0,0,20.185-1.332Zm1.846,13.6a1.848,1.848,0,0,1-1.846,1.846H9.547l-4.97,3.459V14.115H3.217a1.848,1.848,0,0,1-1.846-1.846V1.885A1.848,1.848,0,0,1,3.217.039H20.185a1.848,1.848,0,0,1,1.846,1.846Zm0,0" fill="#fff"/><path d="M171.293,131.172h10.875v1.371H171.293Zm0,0" transform="translate(-165.03 -127.659)" fill="#fff"/><path d="M171.293,211.172h10.875v1.371H171.293Zm0,0" transform="translate(-165.03 -204.734)" fill="#fff"/><path d="M171.293,291.172h10.875v1.371H171.293Zm0,0" transform="translate(-165.03 -281.808)" fill="#fff"/></g></svg>