<svg xmlns="http://www.w3.org/2000/svg" width="23.834" height="20.364" viewBox="0 0 23.834 20.364"><g transform="translate(0 -37.27)"><g transform="translate(0 37.27)"><path d="M23.834,51.827a2.091,2.091,0,0,0-1.4-1.966V42.627l1.4-.576L11.917,37.27,0,42.051l11.917,4.782,9.124-3.645v6.673a2.082,2.082,0,0,0-.2,3.851l-1.16,3.481,1.324.442.734-2.2.734,2.2,1.324-.442-1.16-3.481A2.092,2.092,0,0,0,23.834,51.827Z" transform="translate(0 -37.27)" fill="#fff"/></g><g transform="translate(5.633 45.815)"><path d="M127.284,223.343,121,220.82v1.823c0,1.99,2.7,3.491,6.284,3.491s6.284-1.5,6.284-3.491V220.82Z" transform="translate(-121 -220.82)" fill="#fff"/></g></g></svg>