<svg xmlns="http://www.w3.org/2000/svg" width="26.422" height="27.67" viewBox="0 0 26.422 27.67"><g transform="translate(-10.585)"><g transform="translate(13.416 7.912)"><g transform="translate(0)"><path d="M64.247,134.152a5.662,5.662,0,1,0,5.662,5.662A5.662,5.662,0,0,0,64.247,134.152Zm4.19,3.539H66.4a9.166,9.166,0,0,0-.811-2.378A4.709,4.709,0,0,1,68.437,137.691Zm-2.775,2.123a10.032,10.032,0,0,1-.075,1.18H62.906a9.355,9.355,0,0,1,0-2.359h2.683A10.139,10.139,0,0,1,65.662,139.814Zm-1.553-4.7c.047,0,.09-.014.137-.014s.091.013.139.014a7.841,7.841,0,0,1,1.045,2.581H63.063A7.83,7.83,0,0,1,64.109,135.109Zm-1.2.2a9.193,9.193,0,0,0-.81,2.378H60.057A4.71,4.71,0,0,1,62.908,135.313Zm-3.38,4.5a4.661,4.661,0,0,1,.167-1.18h2.258a11.131,11.131,0,0,0-.067,1.18,10.95,10.95,0,0,0,.068,1.18H59.7A4.661,4.661,0,0,1,59.529,139.814Zm.528,2.123H62.1a9.356,9.356,0,0,0,.807,2.378A4.709,4.709,0,0,1,60.057,141.937Zm4.327,2.581c-.047,0-.09.014-.137.014s-.091-.012-.137-.014a7.9,7.9,0,0,1-1.045-2.581H65.43A7.881,7.881,0,0,1,64.384,144.518Zm1.2-.2a9.33,9.33,0,0,0,.807-2.378h2.043A4.71,4.71,0,0,1,65.587,144.314Zm.951-3.321a11,11,0,0,0,.068-1.18,11.133,11.133,0,0,0-.067-1.18H68.8a4.237,4.237,0,0,1,0,2.359Z" transform="translate(-58.585 -134.152)" fill="#fff"/></g></g><g transform="translate(14.359 22.066)"><g transform="translate(0)"><rect width="9.436" height="0.944" fill="#fff"/></g></g><g transform="translate(29.876 15.269)"><g transform="translate(0 0)"><rect width="1.887" height="0.944" transform="matrix(0.259, -0.966, 0.966, 0.259, 0, 1.823)" fill="#fff"/></g></g><g transform="translate(27.678 18.913)"><g transform="translate(0 0)"><rect width="6.605" height="0.944" transform="matrix(0.259, -0.966, 0.966, 0.259, 0, 6.38)" fill="#fff"/></g></g><g transform="translate(10.585)"><g transform="translate(0)"><path d="M35.607,3,24.67.065A1.885,1.885,0,0,0,22.358,1.4l-.986,3.682H11.529a.944.944,0,0,0-.944.944V24.9a.944.944,0,0,0,.944.944h10.9l6.586,1.765a1.885,1.885,0,0,0,2.311-1.335L36.942,5.307A1.887,1.887,0,0,0,35.607,3ZM11.529,24.9V6.025H25.683a.945.945,0,0,1,.944.944V23.953a.945.945,0,0,1-.944.944ZM36.03,5.063,30.413,26.027a.941.941,0,0,1-1.156.667l-3.29-.882a1.882,1.882,0,0,0,1.6-1.859V16.473l.483.13.489-1.823-.912-.244-.06.226v-7.5l.963.258,1.116,3.648.781.209-.074-3.369,1.38.37.607,1.07.521.14L32.774,8.1,33.6,6.853l-.521-.14-1.06.623-1.38-.37,1.749-2.881L31.6,3.877l-2.791,2.6L27.34,6.084a1.879,1.879,0,0,0-1.658-1H22.348l.921-3.437A.941.941,0,0,1,24.425.976L35.363,3.907a.944.944,0,0,1,.667,1.156Z" transform="translate(-10.585)" fill="#fff"/></g></g><g transform="translate(29.878 12.775)"><g transform="translate(0 0)"><rect width="0.944" height="0.928" transform="translate(0 0.912) rotate(-75.179)" fill="#fff"/></g></g><g transform="translate(31.669 13.251)"><g transform="translate(0 0)"><rect width="0.944" height="0.928" transform="translate(0 0.912) rotate(-75.179)" fill="#fff"/></g></g><g transform="translate(28.087 12.3)"><g transform="translate(0 0)"><rect width="0.944" height="0.928" transform="translate(0 0.912) rotate(-75.179)" fill="#fff"/></g></g></g></svg>