<svg xmlns="http://www.w3.org/2000/svg" width="21" height="15.996" viewBox="0 0 21 15.996"><g transform="translate(0 -61)"><g transform="translate(0 61)"><path d="M19.154,61H1.846A1.849,1.849,0,0,0,0,62.846v12.3A1.849,1.849,0,0,0,1.846,77H19.154A1.849,1.849,0,0,0,21,75.15v-12.3A1.849,1.849,0,0,0,19.154,61ZM18.9,62.23l-8.36,8.36L2.107,62.23ZM1.23,74.9v-11.8L7.156,68.97Zm.87.87,5.93-5.93,2.078,2.06a.615.615,0,0,0,.868,0L13,69.868l5.9,5.9ZM19.77,74.9l-5.9-5.9,5.9-5.9Z" transform="translate(0 -61)" fill="#fff"/></g></g></svg>