<svg xmlns="http://www.w3.org/2000/svg" width="20.553" height="20.458" viewBox="0 0 20.553 20.458"><g transform="translate(0 -51.095)"><g transform="translate(0 51.095)"><path d="M20.549,126.348l-.286-1.565a1.053,1.053,0,0,0-.835-.726,1.889,1.889,0,0,1-1.336-.841,1.856,1.856,0,0,1,.029-1.57,1.092,1.092,0,0,0-.13-1.108s-.2-.232-.559-.575-.6-.527-.6-.527a1.07,1.07,0,0,0-.636-.195,1.008,1.008,0,0,0-.486.115,2.151,2.151,0,0,1-.943.237,1.461,1.461,0,0,1-.636-.138,1.866,1.866,0,0,1-.906-1.287,1.052,1.052,0,0,0-.767-.8l-1.588-.213H10.82a1.068,1.068,0,0,0-.907.567,1.882,1.882,0,0,1-1.219,1,1.374,1.374,0,0,1-.245.022A1.994,1.994,0,0,1,7.2,118.21a1.054,1.054,0,0,0-.722-.272.917.917,0,0,0-.37.073l-1.411.757a1.046,1.046,0,0,0-.437,1.014,1.857,1.857,0,0,1-.394,1.519,1.755,1.755,0,0,1-1.263.473,1.813,1.813,0,0,1-.248-.015.791.791,0,0,0-.12-.009,1.073,1.073,0,0,0-.881.487l-.7,1.432A1.045,1.045,0,0,0,.9,124.742a1.863,1.863,0,0,1,.583,1.46,1.873,1.873,0,0,1-.951,1.252,1.05,1.05,0,0,0-.527.971l.285,1.566a1.053,1.053,0,0,0,.835.725,1.885,1.885,0,0,1,1.335.841,1.856,1.856,0,0,1-.028,1.569,1.093,1.093,0,0,0,.13,1.109s.2.232.558.575.6.527.6.527a1.072,1.072,0,0,0,.637.194,1.01,1.01,0,0,0,.485-.115,2.149,2.149,0,0,1,.943-.237,1.468,1.468,0,0,1,.636.138,1.866,1.866,0,0,1,.906,1.286,1.053,1.053,0,0,0,.768.8l1.588.213h.047a1.068,1.068,0,0,0,.907-.567,1.877,1.877,0,0,1,1.218-1,1.375,1.375,0,0,1,.245-.022,2,2,0,0,1,1.251.534,1.055,1.055,0,0,0,.722.271.916.916,0,0,0,.371-.073l1.41-.756a1.045,1.045,0,0,0,.437-1.013,1.856,1.856,0,0,1,.394-1.519A1.755,1.755,0,0,1,17.953,133a1.785,1.785,0,0,1,.248.015.791.791,0,0,0,.12.009,1.074,1.074,0,0,0,.881-.487l.7-1.432a1.046,1.046,0,0,0-.248-1.075,1.6,1.6,0,0,1,.368-2.713A1.049,1.049,0,0,0,20.549,126.348Zm-1.023.1a2.589,2.589,0,0,0-.585,4.3l0,.018-.61,1.25-.012.007a2.94,2.94,0,0,0-.37-.022,2.724,2.724,0,0,0-1.994.782,2.82,2.82,0,0,0-.662,2.373l-.007.017-1.231.66-.018,0a3,3,0,0,0-1.937-.8,2.424,2.424,0,0,0-.425.038,2.85,2.85,0,0,0-1.94,1.532l-.017.011-1.387-.186-.012-.013a2.838,2.838,0,0,0-1.459-1.993,2.474,2.474,0,0,0-1.074-.238,3.149,3.149,0,0,0-1.411.351H4.36l-.044,0c-.064-.051-.248-.2-.5-.439s-.412-.416-.465-.475l-.007-.059a2.824,2.824,0,0,0,0-2.469,2.859,2.859,0,0,0-2.071-1.358l-.013-.011-.249-1.368.01-.017a2.845,2.845,0,0,0,1.457-1.992,2.825,2.825,0,0,0-.873-2.307l0-.018.61-1.251.012-.007a2.934,2.934,0,0,0,.37.022,2.725,2.725,0,0,0,1.994-.783,2.821,2.821,0,0,0,.661-2.373l.007-.017,1.231-.66.018,0a3,3,0,0,0,1.937.8,2.436,2.436,0,0,0,.426-.038,2.857,2.857,0,0,0,1.94-1.533l.017-.011,1.387.186.011.012a2.838,2.838,0,0,0,1.459,1.994,2.474,2.474,0,0,0,1.074.238,3.142,3.142,0,0,0,1.412-.352h.017l.043,0c.063.05.248.2.5.44s.412.415.464.474l.007.059a2.822,2.822,0,0,0,0,2.47,2.864,2.864,0,0,0,2.072,1.358l.013.011.249,1.367Z" transform="translate(0 -117.157)" fill="#fff"/></g><g transform="translate(5.47 56.555)"><g transform="translate(0 0)"><path d="M100.868,211.048a4.833,4.833,0,0,0-6.8.15,4.742,4.742,0,0,0,.151,6.743,4.833,4.833,0,0,0,6.8-.15A4.743,4.743,0,0,0,100.868,211.048Zm-.58,6.049a3.818,3.818,0,0,1-5.367.118,3.746,3.746,0,0,1-.119-5.325,3.817,3.817,0,0,1,5.367-.118,3.746,3.746,0,0,1,.119,5.325Z" transform="translate(-92.739 -209.725)" fill="#fff"/></g></g></g></svg>