<svg xmlns="http://www.w3.org/2000/svg" width="13.688" height="16.092" viewBox="0 0 13.688 16.092"><g transform="translate(0)"><path d="M140.5,8.671h.107a3.075,3.075,0,0,0,2.349-1.016c1.283-1.446,1.07-3.925,1.046-4.162A3.4,3.4,0,0,0,142.387.47,3.7,3.7,0,0,0,140.594,0h-.057a3.711,3.711,0,0,0-1.793.457,3.4,3.4,0,0,0-1.636,3.036c-.023.237-.237,2.716,1.046,4.162A3.063,3.063,0,0,0,140.5,8.671Zm-2.5-5.1c0-.01,0-.02,0-.027A2.424,2.424,0,0,1,140.534.9h.04a2.436,2.436,0,0,1,2.533,2.646.065.065,0,0,0,0,.027c0,.023.237,2.289-.823,3.482a2.184,2.184,0,0,1-1.716.713h-.033a2.177,2.177,0,0,1-1.713-.713C137.769,5.871,138,3.6,138,3.576Z" transform="translate(-133.716)" fill="#fff"/><path d="M49.759,263.388v-.01c0-.027,0-.053,0-.083-.02-.66-.063-2.2-1.51-2.7l-.033-.01a9.615,9.615,0,0,1-2.766-1.26.45.45,0,1,0-.517.736,10.379,10.379,0,0,0,3.042,1.39c.776.277.863,1.106.886,1.866a.671.671,0,0,0,0,.083,6.048,6.048,0,0,1-.07,1.03,12.264,12.264,0,0,1-5.875,1.366,12.334,12.334,0,0,1-5.878-1.37,5.726,5.726,0,0,1-.07-1.03c0-.027,0-.053,0-.083.023-.76.11-1.59.886-1.866a10.475,10.475,0,0,0,3.042-1.39.45.45,0,1,0-.517-.736,9.509,9.509,0,0,1-2.766,1.26l-.033.01c-1.446.5-1.49,2.039-1.51,2.7a.669.669,0,0,1,0,.083v.01a5.11,5.11,0,0,0,.17,1.51.428.428,0,0,0,.173.21,12.6,12.6,0,0,0,6.5,1.593,12.643,12.643,0,0,0,6.5-1.593.446.446,0,0,0,.173-.21A5.361,5.361,0,0,0,49.759,263.388Z" transform="translate(-36.073 -250.605)" fill="#fff"/></g></svg>